<svg xmlns="http://www.w3.org/2000/svg" xmlns:xlink="http://www.w3.org/1999/xlink" width="700" zoomAndPan="magnify" viewBox="0 0 525 525.000007" height="700" preserveAspectRatio="xMidYMid meet" version="1.0"><defs><g/><clipPath id="id1"><path d="M 170 291 L 187 291 L 187 320 L 170 320 Z M 170 291 " clip-rule="nonzero"/></clipPath><clipPath id="id2"><path d="M 178.675781 291.074219 L 186.5625 293.4375 L 178.824219 319.25 L 170.9375 316.886719 Z M 178.675781 291.074219 " clip-rule="nonzero"/></clipPath><clipPath id="id3"><path d="M 45.566406 221.085938 L 85.988281 221.085938 L 85.988281 281.722656 L 45.566406 281.722656 Z M 45.566406 221.085938 " clip-rule="nonzero"/></clipPath></defs><path stroke-linecap="butt" transform="matrix(13.46295, -0.000000000000001799, 0.000000000000001801, 13.474334, 176.824775, 305.201557)" fill="none" stroke-linejoin="miter" d="M -0.0000413319 0.000116396 L 23.631364 0.000116396 " stroke="#a98351" stroke-width="1" stroke-opacity="1" stroke-miterlimit="4"/><g fill="#000000" fill-opacity="1"><g transform="translate(195.574764, 231.992815)"><g><path d="M 1.765625 -0.390625 L 1.96875 -0.390625 C 2.175781 -0.390625 2.359375 -0.460938 2.515625 -0.609375 C 2.671875 -0.753906 2.804688 -0.929688 2.921875 -1.140625 C 3.035156 -1.347656 3.125 -1.566406 3.1875 -1.796875 C 3.257812 -2.035156 3.296875 -2.257812 3.296875 -2.46875 L 3.296875 -23.46875 C 3.296875 -23.644531 3.257812 -23.847656 3.1875 -24.078125 C 3.125 -24.316406 3.035156 -24.539062 2.921875 -24.75 C 2.804688 -24.96875 2.671875 -25.144531 2.515625 -25.28125 C 2.359375 -25.425781 2.175781 -25.5 1.96875 -25.5 L 1.765625 -25.5 L 1.765625 -25.890625 L 16.875 -25.890625 L 16.875 -22.25 L 16.484375 -22.25 C 16.429688 -22.84375 16.191406 -23.367188 15.765625 -23.828125 C 15.347656 -24.285156 14.695312 -24.515625 13.8125 -24.515625 L 5.921875 -24.515625 L 5.921875 -14.59375 L 12.4375 -14.59375 C 13.039062 -14.59375 13.546875 -14.773438 13.953125 -15.140625 C 14.359375 -15.503906 14.5625 -15.9375 14.5625 -16.4375 L 14.953125 -16.4375 L 14.953125 -11.53125 L 14.5625 -11.53125 C 14.5625 -12 14.363281 -12.40625 13.96875 -12.75 C 13.570312 -13.09375 13.0625 -13.265625 12.4375 -13.265625 L 5.921875 -13.265625 L 5.921875 -1.375 L 14.515625 -1.375 C 15.015625 -1.375 15.445312 -1.488281 15.8125 -1.71875 C 16.175781 -1.957031 16.484375 -2.238281 16.734375 -2.5625 C 16.984375 -2.894531 17.164062 -3.25 17.28125 -3.625 C 17.394531 -4.007812 17.453125 -4.332031 17.453125 -4.59375 L 17.859375 -4.59375 L 17.859375 0 L 1.765625 0 Z M 1.765625 -0.390625 "/></g></g></g><g fill="#000000" fill-opacity="1"><g transform="translate(214.600827, 231.992815)"><g><path d="M 17.65625 -6.9375 C 17.65625 -5.632812 17.394531 -4.519531 16.875 -3.59375 C 16.351562 -2.664062 15.675781 -1.910156 14.84375 -1.328125 C 14.019531 -0.753906 13.09375 -0.335938 12.0625 -0.078125 C 11.03125 0.179688 10.003906 0.3125 8.984375 0.3125 C 7.941406 0.3125 7.039062 0.207031 6.28125 0 C 5.519531 -0.207031 4.828125 -0.40625 4.203125 -0.59375 C 3.785156 -0.71875 3.40625 -0.828125 3.0625 -0.921875 C 2.71875 -1.015625 2.378906 -1.0625 2.046875 -1.0625 L 2.046875 -5.53125 L 2.4375 -5.53125 C 2.4375 -4.539062 2.691406 -3.75 3.203125 -3.15625 C 3.710938 -2.570312 4.304688 -2.117188 4.984375 -1.796875 C 5.660156 -1.484375 6.335938 -1.28125 7.015625 -1.1875 C 7.703125 -1.101562 8.203125 -1.0625 8.515625 -1.0625 C 9.640625 -1.0625 10.609375 -1.222656 11.421875 -1.546875 C 12.234375 -1.878906 12.898438 -2.3125 13.421875 -2.84375 C 13.941406 -3.382812 14.328125 -3.976562 14.578125 -4.625 C 14.828125 -5.28125 14.953125 -5.945312 14.953125 -6.625 C 14.953125 -7.488281 14.765625 -8.210938 14.390625 -8.796875 C 14.023438 -9.390625 13.546875 -9.910156 12.953125 -10.359375 C 12.367188 -10.804688 11.695312 -11.1875 10.9375 -11.5 C 10.1875 -11.8125 9.414062 -12.125 8.625 -12.4375 C 7.738281 -12.78125 6.863281 -13.132812 6 -13.5 C 5.132812 -13.863281 4.363281 -14.3125 3.6875 -14.84375 C 3.007812 -15.382812 2.457031 -16.023438 2.03125 -16.765625 C 1.613281 -17.515625 1.40625 -18.4375 1.40625 -19.53125 C 1.40625 -20.6875 1.628906 -21.6875 2.078125 -22.53125 C 2.523438 -23.382812 3.117188 -24.085938 3.859375 -24.640625 C 4.609375 -25.191406 5.457031 -25.601562 6.40625 -25.875 C 7.363281 -26.144531 8.34375 -26.28125 9.34375 -26.28125 C 10.019531 -26.28125 10.65625 -26.234375 11.25 -26.140625 C 11.851562 -26.054688 12.429688 -25.945312 12.984375 -25.8125 C 13.429688 -25.707031 13.863281 -25.625 14.28125 -25.5625 C 14.695312 -25.5 15.101562 -25.46875 15.5 -25.46875 L 15.5 -21.421875 L 15.109375 -21.421875 C 15.054688 -22.785156 14.519531 -23.707031 13.5 -24.1875 C 12.476562 -24.664062 11.066406 -24.90625 9.265625 -24.90625 C 8.210938 -24.90625 7.351562 -24.726562 6.6875 -24.375 C 6.019531 -24.03125 5.488281 -23.601562 5.09375 -23.09375 C 4.707031 -22.582031 4.441406 -22.03125 4.296875 -21.4375 C 4.148438 -20.851562 4.078125 -20.335938 4.078125 -19.890625 C 4.078125 -19.160156 4.238281 -18.53125 4.5625 -18 C 4.894531 -17.476562 5.332031 -17.019531 5.875 -16.625 C 6.425781 -16.238281 7.0625 -15.890625 7.78125 -15.578125 C 8.5 -15.265625 9.253906 -14.960938 10.046875 -14.671875 C 10.929688 -14.328125 11.832031 -13.957031 12.75 -13.5625 C 13.664062 -13.175781 14.484375 -12.695312 15.203125 -12.125 C 15.921875 -11.550781 16.507812 -10.84375 16.96875 -10 C 17.425781 -9.164062 17.65625 -8.144531 17.65625 -6.9375 Z M 17.65625 -6.9375 "/></g></g></g><g fill="#000000" fill-opacity="1"><g transform="translate(233.823036, 231.992815)"><g><path d="M 11.6875 -0.390625 L 11.890625 -0.390625 L 11.890625 0 L 6.3125 0 L 6.3125 -0.390625 L 6.515625 -0.390625 C 6.722656 -0.390625 6.90625 -0.46875 7.0625 -0.625 C 7.21875 -0.78125 7.351562 -0.960938 7.46875 -1.171875 C 7.59375 -1.378906 7.679688 -1.609375 7.734375 -1.859375 C 7.785156 -2.109375 7.8125 -2.335938 7.8125 -2.546875 L 7.8125 -24.4375 L 3.25 -24.4375 C 2.832031 -24.4375 2.46875 -24.34375 2.15625 -24.15625 C 1.84375 -23.976562 1.582031 -23.75 1.375 -23.46875 C 1.164062 -23.195312 1.007812 -22.898438 0.90625 -22.578125 C 0.800781 -22.253906 0.75 -21.9375 0.75 -21.625 L 0.359375 -21.625 L 0.359375 -25.890625 L 17.96875 -25.890625 L 17.96875 -21.625 L 17.578125 -21.625 C 17.578125 -21.9375 17.523438 -22.253906 17.421875 -22.578125 C 17.316406 -22.898438 17.160156 -23.195312 16.953125 -23.46875 C 16.742188 -23.75 16.476562 -23.976562 16.15625 -24.15625 C 15.84375 -24.34375 15.476562 -24.4375 15.0625 -24.4375 L 10.4375 -24.4375 L 10.4375 -2.546875 C 10.4375 -2.335938 10.460938 -2.109375 10.515625 -1.859375 C 10.566406 -1.609375 10.648438 -1.378906 10.765625 -1.171875 C 10.890625 -0.960938 11.019531 -0.78125 11.15625 -0.625 C 11.300781 -0.46875 11.476562 -0.390625 11.6875 -0.390625 Z M 11.6875 -0.390625 "/></g></g></g><g fill="#000000" fill-opacity="1"><g transform="translate(252.182216, 231.992815)"><g><path d="M 1.765625 -25.890625 L 7.34375 -25.890625 L 7.34375 -25.5 L 7.140625 -25.5 C 6.929688 -25.5 6.75 -25.425781 6.59375 -25.28125 C 6.4375 -25.144531 6.296875 -24.96875 6.171875 -24.75 C 6.054688 -24.539062 5.972656 -24.316406 5.921875 -24.078125 C 5.867188 -23.847656 5.84375 -23.644531 5.84375 -23.46875 L 5.84375 -7.96875 C 5.84375 -6.945312 5.945312 -6.003906 6.15625 -5.140625 C 6.363281 -4.273438 6.71875 -3.53125 7.21875 -2.90625 C 7.71875 -2.28125 8.367188 -1.789062 9.171875 -1.4375 C 9.984375 -1.082031 10.976562 -0.90625 12.15625 -0.90625 C 13.46875 -0.90625 14.515625 -1.113281 15.296875 -1.53125 C 16.085938 -1.945312 16.691406 -2.488281 17.109375 -3.15625 C 17.523438 -3.820312 17.796875 -4.570312 17.921875 -5.40625 C 18.054688 -6.25 18.125 -7.078125 18.125 -7.890625 L 18.125 -23.46875 C 18.125 -23.644531 18.097656 -23.847656 18.046875 -24.078125 C 17.992188 -24.316406 17.90625 -24.539062 17.78125 -24.75 C 17.664062 -24.96875 17.53125 -25.144531 17.375 -25.28125 C 17.21875 -25.425781 17.050781 -25.5 16.875 -25.5 L 16.671875 -25.5 L 16.671875 -25.890625 L 20.953125 -25.890625 L 20.953125 -25.5 L 20.75 -25.5 C 20.539062 -25.5 20.363281 -25.425781 20.21875 -25.28125 C 20.082031 -25.144531 19.953125 -24.96875 19.828125 -24.75 C 19.710938 -24.539062 19.628906 -24.316406 19.578125 -24.078125 C 19.523438 -23.847656 19.5 -23.644531 19.5 -23.46875 L 19.5 -8 C 19.5 -6.300781 19.289062 -4.910156 18.875 -3.828125 C 18.457031 -2.742188 17.878906 -1.882812 17.140625 -1.25 C 16.410156 -0.625 15.554688 -0.195312 14.578125 0.03125 C 13.597656 0.269531 12.554688 0.390625 11.453125 0.390625 C 10.273438 0.390625 9.179688 0.265625 8.171875 0.015625 C 7.171875 -0.234375 6.300781 -0.671875 5.5625 -1.296875 C 4.832031 -1.921875 4.257812 -2.773438 3.84375 -3.859375 C 3.425781 -4.953125 3.21875 -6.320312 3.21875 -7.96875 L 3.21875 -23.46875 C 3.21875 -23.644531 3.191406 -23.847656 3.140625 -24.078125 C 3.085938 -24.316406 3 -24.539062 2.875 -24.75 C 2.757812 -24.96875 2.625 -25.144531 2.46875 -25.28125 C 2.3125 -25.425781 2.144531 -25.5 1.96875 -25.5 L 1.765625 -25.5 Z M 1.765625 -25.890625 "/></g></g></g><g fill="#000000" fill-opacity="1"><g transform="translate(275.091958, 231.992815)"><g><path d="M 1.71875 -0.390625 L 1.921875 -0.390625 C 2.109375 -0.390625 2.28125 -0.46875 2.4375 -0.625 C 2.59375 -0.78125 2.726562 -0.960938 2.84375 -1.171875 C 2.957031 -1.378906 3.039062 -1.609375 3.09375 -1.859375 C 3.144531 -2.109375 3.171875 -2.335938 3.171875 -2.546875 L 3.171875 -23.46875 C 3.171875 -23.644531 3.144531 -23.847656 3.09375 -24.078125 C 3.039062 -24.316406 2.960938 -24.539062 2.859375 -24.75 C 2.753906 -24.96875 2.625 -25.144531 2.46875 -25.28125 C 2.3125 -25.425781 2.128906 -25.5 1.921875 -25.5 L 1.71875 -25.5 L 1.71875 -25.890625 L 9.296875 -25.890625 C 11.359375 -25.890625 13.210938 -25.53125 14.859375 -24.8125 C 16.515625 -24.09375 17.910156 -23.125 19.046875 -21.90625 C 20.179688 -20.695312 21.050781 -19.304688 21.65625 -17.734375 C 22.257812 -16.160156 22.5625 -14.523438 22.5625 -12.828125 C 22.5625 -11.234375 22.269531 -9.671875 21.6875 -8.140625 C 21.113281 -6.609375 20.25 -5.238281 19.09375 -4.03125 C 17.945312 -2.832031 16.507812 -1.859375 14.78125 -1.109375 C 13.0625 -0.367188 11.0625 0 8.78125 0 L 1.71875 0 Z M 19.890625 -12.234375 C 19.890625 -13.910156 19.585938 -15.492188 18.984375 -16.984375 C 18.390625 -18.472656 17.546875 -19.773438 16.453125 -20.890625 C 15.367188 -22.003906 14.085938 -22.882812 12.609375 -23.53125 C 11.128906 -24.1875 9.53125 -24.515625 7.8125 -24.515625 L 5.8125 -24.515625 L 5.8125 -1.375 L 7.890625 -1.375 C 9.296875 -1.375 10.710938 -1.585938 12.140625 -2.015625 C 13.566406 -2.453125 14.851562 -3.117188 16 -4.015625 C 17.15625 -4.921875 18.09375 -6.050781 18.8125 -7.40625 C 19.53125 -8.769531 19.890625 -10.378906 19.890625 -12.234375 Z M 19.890625 -12.234375 "/></g></g></g><g fill="#000000" fill-opacity="1"><g transform="translate(299.257024, 231.992815)"><g><path d="M 1.921875 -25.890625 L 7.53125 -25.890625 L 7.53125 -25.5 L 7.34375 -25.5 C 7.15625 -25.5 6.984375 -25.425781 6.828125 -25.28125 C 6.671875 -25.144531 6.539062 -24.976562 6.4375 -24.78125 C 6.332031 -24.582031 6.242188 -24.359375 6.171875 -24.109375 C 6.109375 -23.859375 6.078125 -23.644531 6.078125 -23.46875 L 6.078125 -2.546875 C 6.078125 -2.335938 6.101562 -2.109375 6.15625 -1.859375 C 6.207031 -1.609375 6.289062 -1.378906 6.40625 -1.171875 C 6.53125 -0.960938 6.660156 -0.78125 6.796875 -0.625 C 6.941406 -0.46875 7.125 -0.390625 7.34375 -0.390625 L 7.53125 -0.390625 L 7.53125 0 L 1.921875 0 L 1.921875 -0.390625 L 2.125 -0.390625 C 2.332031 -0.390625 2.515625 -0.460938 2.671875 -0.609375 C 2.828125 -0.753906 2.960938 -0.9375 3.078125 -1.15625 C 3.191406 -1.375 3.273438 -1.609375 3.328125 -1.859375 C 3.378906 -2.109375 3.40625 -2.335938 3.40625 -2.546875 L 3.40625 -23.46875 C 3.40625 -23.644531 3.378906 -23.847656 3.328125 -24.078125 C 3.273438 -24.316406 3.191406 -24.539062 3.078125 -24.75 C 2.960938 -24.96875 2.828125 -25.144531 2.671875 -25.28125 C 2.515625 -25.425781 2.332031 -25.5 2.125 -25.5 L 1.921875 -25.5 Z M 1.921875 -25.890625 "/></g></g></g><g fill="#000000" fill-opacity="1"><g transform="translate(308.789667, 231.992815)"><g><path d="M 14.984375 -26.28125 C 17.023438 -26.28125 18.851562 -25.921875 20.46875 -25.203125 C 22.09375 -24.484375 23.472656 -23.515625 24.609375 -22.296875 C 25.753906 -21.085938 26.632812 -19.675781 27.25 -18.0625 C 27.863281 -16.457031 28.171875 -14.78125 28.171875 -13.03125 C 28.171875 -11.0625 27.8125 -9.253906 27.09375 -7.609375 C 26.375 -5.960938 25.382812 -4.550781 24.125 -3.375 C 22.875 -2.195312 21.414062 -1.273438 19.75 -0.609375 C 18.09375 0.0546875 16.320312 0.390625 14.4375 0.390625 C 12.425781 0.390625 10.613281 0.0234375 9 -0.703125 C 7.394531 -1.441406 6.035156 -2.410156 4.921875 -3.609375 C 3.804688 -4.816406 2.945312 -6.203125 2.34375 -7.765625 C 1.75 -9.335938 1.453125 -10.972656 1.453125 -12.671875 C 1.453125 -14.347656 1.75 -16.003906 2.34375 -17.640625 C 2.945312 -19.273438 3.832031 -20.734375 5 -22.015625 C 6.164062 -23.296875 7.582031 -24.328125 9.25 -25.109375 C 10.925781 -25.890625 12.835938 -26.28125 14.984375 -26.28125 Z M 14.953125 -0.984375 C 16.703125 -1.054688 18.238281 -1.453125 19.5625 -2.171875 C 20.882812 -2.890625 21.988281 -3.804688 22.875 -4.921875 C 23.757812 -6.035156 24.414062 -7.257812 24.84375 -8.59375 C 25.28125 -9.925781 25.5 -11.25 25.5 -12.5625 C 25.5 -14 25.238281 -15.445312 24.71875 -16.90625 C 24.195312 -18.375 23.453125 -19.703125 22.484375 -20.890625 C 21.515625 -22.078125 20.351562 -23.039062 19 -23.78125 C 17.65625 -24.53125 16.148438 -24.90625 14.484375 -24.90625 C 12.859375 -24.90625 11.40625 -24.546875 10.125 -23.828125 C 8.84375 -23.109375 7.75 -22.1875 6.84375 -21.0625 C 5.945312 -19.9375 5.257812 -18.679688 4.78125 -17.296875 C 4.3125 -15.910156 4.078125 -14.550781 4.078125 -13.21875 C 4.078125 -11.78125 4.351562 -10.332031 4.90625 -8.875 C 5.457031 -7.425781 6.210938 -6.113281 7.171875 -4.9375 C 8.140625 -3.757812 9.285156 -2.804688 10.609375 -2.078125 C 11.929688 -1.347656 13.378906 -0.984375 14.953125 -0.984375 Z M 14.953125 -0.984375 "/></g></g></g><g fill="#000000" fill-opacity="1"><g transform="translate(338.642941, 231.992815)"><g/></g></g><g fill="#000000" fill-opacity="1"><g transform="translate(348.842479, 231.992815)"><g><path d="M 2.9375 -25.890625 L 8.59375 -25.890625 L 8.59375 -25.5 L 8.390625 -25.5 C 8.179688 -25.5 8 -25.425781 7.84375 -25.28125 C 7.6875 -25.144531 7.550781 -24.960938 7.4375 -24.734375 C 7.320312 -24.515625 7.226562 -24.285156 7.15625 -24.046875 C 7.09375 -23.816406 7.0625 -23.609375 7.0625 -23.421875 L 7.0625 -1.5625 C 7.0625 -0.726562 6.957031 0.0390625 6.75 0.75 C 6.539062 1.457031 6.257812 2.117188 5.90625 2.734375 C 5.550781 3.347656 5.15625 3.90625 4.71875 4.40625 C 4.289062 4.914062 3.84375 5.382812 3.375 5.8125 C 2.300781 6.78125 1.070312 7.585938 -0.3125 8.234375 L -0.515625 7.921875 C 0.398438 7.265625 1.210938 6.492188 1.921875 5.609375 C 2.523438 4.847656 3.085938 3.914062 3.609375 2.8125 C 4.128906 1.71875 4.390625 0.453125 4.390625 -0.984375 L 4.390625 -23.421875 C 4.390625 -23.609375 4.363281 -23.816406 4.3125 -24.046875 C 4.257812 -24.285156 4.175781 -24.515625 4.0625 -24.734375 C 3.945312 -24.960938 3.804688 -25.144531 3.640625 -25.28125 C 3.484375 -25.425781 3.316406 -25.5 3.140625 -25.5 L 2.9375 -25.5 Z M 2.9375 -25.890625 "/></g></g></g><g fill="#000000" fill-opacity="1"><g transform="translate(359.434309, 231.992815)"><g><path d="M 1.765625 -25.890625 L 7.34375 -25.890625 L 7.34375 -25.5 L 7.140625 -25.5 C 6.929688 -25.5 6.75 -25.425781 6.59375 -25.28125 C 6.4375 -25.144531 6.296875 -24.96875 6.171875 -24.75 C 6.054688 -24.539062 5.972656 -24.316406 5.921875 -24.078125 C 5.867188 -23.847656 5.84375 -23.644531 5.84375 -23.46875 L 5.84375 -7.96875 C 5.84375 -6.945312 5.945312 -6.003906 6.15625 -5.140625 C 6.363281 -4.273438 6.71875 -3.53125 7.21875 -2.90625 C 7.71875 -2.28125 8.367188 -1.789062 9.171875 -1.4375 C 9.984375 -1.082031 10.976562 -0.90625 12.15625 -0.90625 C 13.46875 -0.90625 14.515625 -1.113281 15.296875 -1.53125 C 16.085938 -1.945312 16.691406 -2.488281 17.109375 -3.15625 C 17.523438 -3.820312 17.796875 -4.570312 17.921875 -5.40625 C 18.054688 -6.25 18.125 -7.078125 18.125 -7.890625 L 18.125 -23.46875 C 18.125 -23.644531 18.097656 -23.847656 18.046875 -24.078125 C 17.992188 -24.316406 17.90625 -24.539062 17.78125 -24.75 C 17.664062 -24.96875 17.53125 -25.144531 17.375 -25.28125 C 17.21875 -25.425781 17.050781 -25.5 16.875 -25.5 L 16.671875 -25.5 L 16.671875 -25.890625 L 20.953125 -25.890625 L 20.953125 -25.5 L 20.75 -25.5 C 20.539062 -25.5 20.363281 -25.425781 20.21875 -25.28125 C 20.082031 -25.144531 19.953125 -24.96875 19.828125 -24.75 C 19.710938 -24.539062 19.628906 -24.316406 19.578125 -24.078125 C 19.523438 -23.847656 19.5 -23.644531 19.5 -23.46875 L 19.5 -8 C 19.5 -6.300781 19.289062 -4.910156 18.875 -3.828125 C 18.457031 -2.742188 17.878906 -1.882812 17.140625 -1.25 C 16.410156 -0.625 15.554688 -0.195312 14.578125 0.03125 C 13.597656 0.269531 12.554688 0.390625 11.453125 0.390625 C 10.273438 0.390625 9.179688 0.265625 8.171875 0.015625 C 7.171875 -0.234375 6.300781 -0.671875 5.5625 -1.296875 C 4.832031 -1.921875 4.257812 -2.773438 3.84375 -3.859375 C 3.425781 -4.953125 3.21875 -6.320312 3.21875 -7.96875 L 3.21875 -23.46875 C 3.21875 -23.644531 3.191406 -23.847656 3.140625 -24.078125 C 3.085938 -24.316406 3 -24.539062 2.875 -24.75 C 2.757812 -24.96875 2.625 -25.144531 2.46875 -25.28125 C 2.3125 -25.425781 2.144531 -25.5 1.96875 -25.5 L 1.765625 -25.5 Z M 1.765625 -25.890625 "/></g></g></g><g fill="#000000" fill-opacity="1"><g transform="translate(382.344063, 231.992815)"><g><path d="M 7.09375 -0.390625 L 7.296875 -0.390625 L 7.296875 0 L 1.765625 0 L 1.765625 -0.390625 L 1.96875 -0.390625 C 2.144531 -0.390625 2.3125 -0.46875 2.46875 -0.625 C 2.625 -0.78125 2.757812 -0.960938 2.875 -1.171875 C 3 -1.378906 3.085938 -1.609375 3.140625 -1.859375 C 3.191406 -2.109375 3.21875 -2.335938 3.21875 -2.546875 L 3.21875 -23.46875 C 3.21875 -23.644531 3.191406 -23.847656 3.140625 -24.078125 C 3.085938 -24.316406 3 -24.539062 2.875 -24.75 C 2.757812 -24.96875 2.625 -25.144531 2.46875 -25.28125 C 2.3125 -25.425781 2.144531 -25.5 1.96875 -25.5 L 1.765625 -25.5 L 1.765625 -25.890625 L 8.59375 -25.890625 C 11.207031 -25.890625 13.226562 -25.378906 14.65625 -24.359375 C 16.082031 -23.335938 16.796875 -21.835938 16.796875 -19.859375 C 16.796875 -18.859375 16.628906 -17.984375 16.296875 -17.234375 C 15.972656 -16.492188 15.535156 -15.851562 14.984375 -15.3125 C 14.429688 -14.78125 13.78125 -14.347656 13.03125 -14.015625 C 12.289062 -13.691406 11.503906 -13.453125 10.671875 -13.296875 L 13.5 -8.984375 C 14.175781 -7.941406 14.867188 -6.914062 15.578125 -5.90625 C 16.285156 -4.894531 16.976562 -3.851562 17.65625 -2.78125 C 17.84375 -2.519531 18.046875 -2.242188 18.265625 -1.953125 C 18.484375 -1.671875 18.71875 -1.410156 18.96875 -1.171875 C 19.21875 -0.941406 19.476562 -0.753906 19.75 -0.609375 C 20.03125 -0.460938 20.3125 -0.390625 20.59375 -0.390625 L 20.59375 0 L 18.90625 0 C 17.863281 0 17.007812 -0.253906 16.34375 -0.765625 C 15.675781 -1.273438 15.117188 -1.867188 14.671875 -2.546875 C 13.492188 -4.273438 12.320312 -6.023438 11.15625 -7.796875 C 10 -9.578125 8.84375 -11.332031 7.6875 -13.0625 C 7.40625 -13.09375 7.097656 -13.125 6.765625 -13.15625 C 6.441406 -13.195312 6.132812 -13.242188 5.84375 -13.296875 L 5.84375 -2.546875 C 5.84375 -2.335938 5.867188 -2.109375 5.921875 -1.859375 C 5.972656 -1.609375 6.054688 -1.378906 6.171875 -1.171875 C 6.296875 -0.960938 6.425781 -0.78125 6.5625 -0.625 C 6.707031 -0.46875 6.882812 -0.390625 7.09375 -0.390625 Z M 5.84375 -24.5625 L 5.84375 -14.59375 L 6.046875 -14.59375 C 6.253906 -14.570312 6.585938 -14.550781 7.046875 -14.53125 C 7.503906 -14.519531 8.070312 -14.515625 8.75 -14.515625 C 9.300781 -14.515625 9.882812 -14.597656 10.5 -14.765625 C 11.113281 -14.941406 11.6875 -15.234375 12.21875 -15.640625 C 12.757812 -16.046875 13.203125 -16.570312 13.546875 -17.21875 C 13.898438 -17.875 14.078125 -18.703125 14.078125 -19.703125 C 14.078125 -20.691406 13.890625 -21.5 13.515625 -22.125 C 13.140625 -22.75 12.617188 -23.242188 11.953125 -23.609375 C 11.285156 -23.984375 10.476562 -24.234375 9.53125 -24.359375 C 8.59375 -24.492188 7.5625 -24.5625 6.4375 -24.5625 Z M 5.84375 -24.5625 "/></g></g></g><g fill="#000000" fill-opacity="1"><g transform="translate(403.527724, 231.992815)"><g><path d="M 1.921875 -25.890625 L 7.53125 -25.890625 L 7.53125 -25.5 L 7.34375 -25.5 C 7.15625 -25.5 6.984375 -25.425781 6.828125 -25.28125 C 6.671875 -25.144531 6.539062 -24.976562 6.4375 -24.78125 C 6.332031 -24.582031 6.242188 -24.359375 6.171875 -24.109375 C 6.109375 -23.859375 6.078125 -23.644531 6.078125 -23.46875 L 6.078125 -2.546875 C 6.078125 -2.335938 6.101562 -2.109375 6.15625 -1.859375 C 6.207031 -1.609375 6.289062 -1.378906 6.40625 -1.171875 C 6.53125 -0.960938 6.660156 -0.78125 6.796875 -0.625 C 6.941406 -0.46875 7.125 -0.390625 7.34375 -0.390625 L 7.53125 -0.390625 L 7.53125 0 L 1.921875 0 L 1.921875 -0.390625 L 2.125 -0.390625 C 2.332031 -0.390625 2.515625 -0.460938 2.671875 -0.609375 C 2.828125 -0.753906 2.960938 -0.9375 3.078125 -1.15625 C 3.191406 -1.375 3.273438 -1.609375 3.328125 -1.859375 C 3.378906 -2.109375 3.40625 -2.335938 3.40625 -2.546875 L 3.40625 -23.46875 C 3.40625 -23.644531 3.378906 -23.847656 3.328125 -24.078125 C 3.273438 -24.316406 3.191406 -24.539062 3.078125 -24.75 C 2.960938 -24.96875 2.828125 -25.144531 2.671875 -25.28125 C 2.515625 -25.425781 2.332031 -25.5 2.125 -25.5 L 1.921875 -25.5 Z M 1.453125 -27 L 7.015625 -31.1875 L 8.046875 -29.421875 L 1.5625 -26.765625 Z M 1.453125 -27 "/></g></g></g><g fill="#000000" fill-opacity="1"><g transform="translate(413.060356, 231.992815)"><g><path d="M 1.71875 -0.390625 L 1.921875 -0.390625 C 2.109375 -0.390625 2.28125 -0.46875 2.4375 -0.625 C 2.59375 -0.78125 2.726562 -0.960938 2.84375 -1.171875 C 2.957031 -1.378906 3.039062 -1.609375 3.09375 -1.859375 C 3.144531 -2.109375 3.171875 -2.335938 3.171875 -2.546875 L 3.171875 -23.46875 C 3.171875 -23.644531 3.144531 -23.847656 3.09375 -24.078125 C 3.039062 -24.316406 2.960938 -24.539062 2.859375 -24.75 C 2.753906 -24.96875 2.625 -25.144531 2.46875 -25.28125 C 2.3125 -25.425781 2.128906 -25.5 1.921875 -25.5 L 1.71875 -25.5 L 1.71875 -25.890625 L 9.296875 -25.890625 C 11.359375 -25.890625 13.210938 -25.53125 14.859375 -24.8125 C 16.515625 -24.09375 17.910156 -23.125 19.046875 -21.90625 C 20.179688 -20.695312 21.050781 -19.304688 21.65625 -17.734375 C 22.257812 -16.160156 22.5625 -14.523438 22.5625 -12.828125 C 22.5625 -11.234375 22.269531 -9.671875 21.6875 -8.140625 C 21.113281 -6.609375 20.25 -5.238281 19.09375 -4.03125 C 17.945312 -2.832031 16.507812 -1.859375 14.78125 -1.109375 C 13.0625 -0.367188 11.0625 0 8.78125 0 L 1.71875 0 Z M 19.890625 -12.234375 C 19.890625 -13.910156 19.585938 -15.492188 18.984375 -16.984375 C 18.390625 -18.472656 17.546875 -19.773438 16.453125 -20.890625 C 15.367188 -22.003906 14.085938 -22.882812 12.609375 -23.53125 C 11.128906 -24.1875 9.53125 -24.515625 7.8125 -24.515625 L 5.8125 -24.515625 L 5.8125 -1.375 L 7.890625 -1.375 C 9.296875 -1.375 10.710938 -1.585938 12.140625 -2.015625 C 13.566406 -2.453125 14.851562 -3.117188 16 -4.015625 C 17.15625 -4.921875 18.09375 -6.050781 18.8125 -7.40625 C 19.53125 -8.769531 19.890625 -10.378906 19.890625 -12.234375 Z M 19.890625 -12.234375 "/></g></g></g><g fill="#000000" fill-opacity="1"><g transform="translate(437.225422, 231.992815)"><g><path d="M 1.921875 -25.890625 L 7.53125 -25.890625 L 7.53125 -25.5 L 7.34375 -25.5 C 7.15625 -25.5 6.984375 -25.425781 6.828125 -25.28125 C 6.671875 -25.144531 6.539062 -24.976562 6.4375 -24.78125 C 6.332031 -24.582031 6.242188 -24.359375 6.171875 -24.109375 C 6.109375 -23.859375 6.078125 -23.644531 6.078125 -23.46875 L 6.078125 -2.546875 C 6.078125 -2.335938 6.101562 -2.109375 6.15625 -1.859375 C 6.207031 -1.609375 6.289062 -1.378906 6.40625 -1.171875 C 6.53125 -0.960938 6.660156 -0.78125 6.796875 -0.625 C 6.941406 -0.46875 7.125 -0.390625 7.34375 -0.390625 L 7.53125 -0.390625 L 7.53125 0 L 1.921875 0 L 1.921875 -0.390625 L 2.125 -0.390625 C 2.332031 -0.390625 2.515625 -0.460938 2.671875 -0.609375 C 2.828125 -0.753906 2.960938 -0.9375 3.078125 -1.15625 C 3.191406 -1.375 3.273438 -1.609375 3.328125 -1.859375 C 3.378906 -2.109375 3.40625 -2.335938 3.40625 -2.546875 L 3.40625 -23.46875 C 3.40625 -23.644531 3.378906 -23.847656 3.328125 -24.078125 C 3.273438 -24.316406 3.191406 -24.539062 3.078125 -24.75 C 2.960938 -24.96875 2.828125 -25.144531 2.671875 -25.28125 C 2.515625 -25.425781 2.332031 -25.5 2.125 -25.5 L 1.921875 -25.5 Z M 1.921875 -25.890625 "/></g></g></g><g fill="#000000" fill-opacity="1"><g transform="translate(446.758054, 231.992815)"><g><path d="M 15.578125 -24.875 C 13.640625 -24.875 11.957031 -24.523438 10.53125 -23.828125 C 9.101562 -23.140625 7.921875 -22.238281 6.984375 -21.125 C 6.046875 -20.007812 5.347656 -18.757812 4.890625 -17.375 C 4.429688 -15.988281 4.203125 -14.617188 4.203125 -13.265625 C 4.203125 -11.722656 4.5 -10.210938 5.09375 -8.734375 C 5.695312 -7.253906 6.53125 -5.941406 7.59375 -4.796875 C 8.65625 -3.660156 9.890625 -2.742188 11.296875 -2.046875 C 12.710938 -1.359375 14.242188 -1.015625 15.890625 -1.015625 C 16.359375 -1.015625 16.910156 -1.066406 17.546875 -1.171875 C 18.191406 -1.273438 18.828125 -1.476562 19.453125 -1.78125 C 20.085938 -2.082031 20.671875 -2.507812 21.203125 -3.0625 C 21.742188 -3.613281 22.15625 -4.332031 22.4375 -5.21875 L 22.828125 -5.21875 L 22.828125 -0.859375 C 22.441406 -0.859375 22.03125 -0.804688 21.59375 -0.703125 C 21.164062 -0.597656 20.691406 -0.484375 20.171875 -0.359375 C 19.484375 -0.171875 18.726562 0 17.90625 0.15625 C 17.082031 0.3125 16.210938 0.390625 15.296875 0.390625 C 13.023438 0.390625 11.023438 0 9.296875 -0.78125 C 7.566406 -1.570312 6.125 -2.59375 4.96875 -3.84375 C 3.820312 -5.101562 2.960938 -6.519531 2.390625 -8.09375 C 1.816406 -9.675781 1.53125 -11.28125 1.53125 -12.90625 C 1.53125 -14.53125 1.816406 -16.140625 2.390625 -17.734375 C 2.960938 -19.328125 3.835938 -20.757812 5.015625 -22.03125 C 6.191406 -23.300781 7.671875 -24.328125 9.453125 -25.109375 C 11.234375 -25.890625 13.328125 -26.28125 15.734375 -26.28125 C 16.597656 -26.28125 17.375 -26.203125 18.0625 -26.046875 C 18.757812 -25.890625 19.382812 -25.734375 19.9375 -25.578125 C 20.320312 -25.453125 20.675781 -25.351562 21 -25.28125 C 21.332031 -25.21875 21.65625 -25.1875 21.96875 -25.1875 L 21.96875 -20.828125 L 21.578125 -20.828125 C 21.421875 -21.640625 21.132812 -22.3125 20.71875 -22.84375 C 20.300781 -23.382812 19.8125 -23.796875 19.25 -24.078125 C 18.6875 -24.367188 18.082031 -24.570312 17.4375 -24.6875 C 16.800781 -24.8125 16.179688 -24.875 15.578125 -24.875 Z M 15.578125 -24.875 "/></g></g></g><g fill="#000000" fill-opacity="1"><g transform="translate(471.197712, 231.992815)"><g><path d="M 14.984375 -26.28125 C 17.023438 -26.28125 18.851562 -25.921875 20.46875 -25.203125 C 22.09375 -24.484375 23.472656 -23.515625 24.609375 -22.296875 C 25.753906 -21.085938 26.632812 -19.675781 27.25 -18.0625 C 27.863281 -16.457031 28.171875 -14.78125 28.171875 -13.03125 C 28.171875 -11.0625 27.8125 -9.253906 27.09375 -7.609375 C 26.375 -5.960938 25.382812 -4.550781 24.125 -3.375 C 22.875 -2.195312 21.414062 -1.273438 19.75 -0.609375 C 18.09375 0.0546875 16.320312 0.390625 14.4375 0.390625 C 12.425781 0.390625 10.613281 0.0234375 9 -0.703125 C 7.394531 -1.441406 6.035156 -2.410156 4.921875 -3.609375 C 3.804688 -4.816406 2.945312 -6.203125 2.34375 -7.765625 C 1.75 -9.335938 1.453125 -10.972656 1.453125 -12.671875 C 1.453125 -14.347656 1.75 -16.003906 2.34375 -17.640625 C 2.945312 -19.273438 3.832031 -20.734375 5 -22.015625 C 6.164062 -23.296875 7.582031 -24.328125 9.25 -25.109375 C 10.925781 -25.890625 12.835938 -26.28125 14.984375 -26.28125 Z M 14.953125 -0.984375 C 16.703125 -1.054688 18.238281 -1.453125 19.5625 -2.171875 C 20.882812 -2.890625 21.988281 -3.804688 22.875 -4.921875 C 23.757812 -6.035156 24.414062 -7.257812 24.84375 -8.59375 C 25.28125 -9.925781 25.5 -11.25 25.5 -12.5625 C 25.5 -14 25.238281 -15.445312 24.71875 -16.90625 C 24.195312 -18.375 23.453125 -19.703125 22.484375 -20.890625 C 21.515625 -22.078125 20.351562 -23.039062 19 -23.78125 C 17.65625 -24.53125 16.148438 -24.90625 14.484375 -24.90625 C 12.859375 -24.90625 11.40625 -24.546875 10.125 -23.828125 C 8.84375 -23.109375 7.75 -22.1875 6.84375 -21.0625 C 5.945312 -19.9375 5.257812 -18.679688 4.78125 -17.296875 C 4.3125 -15.910156 4.078125 -14.550781 4.078125 -13.21875 C 4.078125 -11.78125 4.351562 -10.332031 4.90625 -8.875 C 5.457031 -7.425781 6.210938 -6.113281 7.171875 -4.9375 C 8.140625 -3.757812 9.285156 -2.804688 10.609375 -2.078125 C 11.929688 -1.347656 13.378906 -0.984375 14.953125 -0.984375 Z M 14.953125 -0.984375 "/></g></g></g><g fill="#000000" fill-opacity="1"><g transform="translate(212.318073, 286.909111)"><g><path d="M 16.75 -0.390625 L 16.953125 -0.390625 C 17.578125 -0.390625 17.890625 -0.675781 17.890625 -1.25 C 17.890625 -1.457031 17.847656 -1.679688 17.765625 -1.921875 L 14.234375 -11.453125 L 7.375 -11.453125 L 3.96875 -2.078125 C 3.882812 -1.867188 3.84375 -1.671875 3.84375 -1.484375 C 3.84375 -1.148438 3.929688 -0.882812 4.109375 -0.6875 C 4.296875 -0.488281 4.492188 -0.390625 4.703125 -0.390625 L 4.90625 -0.390625 L 4.90625 0 L 0.546875 0 L 0.546875 -0.390625 L 0.75 -0.390625 C 1.082031 -0.390625 1.410156 -0.59375 1.734375 -1 C 2.066406 -1.40625 2.335938 -1.882812 2.546875 -2.4375 L 11.53125 -26.359375 L 20.328125 -2.671875 C 20.503906 -2.148438 20.753906 -1.640625 21.078125 -1.140625 C 21.410156 -0.640625 21.835938 -0.390625 22.359375 -0.390625 L 22.5625 -0.390625 L 22.5625 0 L 16.75 0 Z M 7.765625 -12.796875 L 13.8125 -12.796875 L 10.796875 -20.984375 Z M 7.765625 -12.796875 "/></g></g></g><g fill="#000000" fill-opacity="1"><g transform="translate(235.463185, 286.909111)"><g><path d="M 7.09375 -0.390625 L 7.296875 -0.390625 L 7.296875 0 L 1.765625 0 L 1.765625 -0.390625 L 1.96875 -0.390625 C 2.144531 -0.390625 2.3125 -0.46875 2.46875 -0.625 C 2.625 -0.78125 2.757812 -0.960938 2.875 -1.171875 C 3 -1.378906 3.085938 -1.609375 3.140625 -1.859375 C 3.191406 -2.109375 3.21875 -2.335938 3.21875 -2.546875 L 3.21875 -23.46875 C 3.21875 -23.644531 3.191406 -23.847656 3.140625 -24.078125 C 3.085938 -24.316406 3 -24.539062 2.875 -24.75 C 2.757812 -24.96875 2.625 -25.144531 2.46875 -25.28125 C 2.3125 -25.425781 2.144531 -25.5 1.96875 -25.5 L 1.765625 -25.5 L 1.765625 -25.890625 L 8.59375 -25.890625 C 11.207031 -25.890625 13.226562 -25.378906 14.65625 -24.359375 C 16.082031 -23.335938 16.796875 -21.835938 16.796875 -19.859375 C 16.796875 -18.859375 16.628906 -17.984375 16.296875 -17.234375 C 15.972656 -16.492188 15.535156 -15.851562 14.984375 -15.3125 C 14.429688 -14.78125 13.78125 -14.347656 13.03125 -14.015625 C 12.289062 -13.691406 11.503906 -13.453125 10.671875 -13.296875 L 13.5 -8.984375 C 14.175781 -7.941406 14.867188 -6.914062 15.578125 -5.90625 C 16.285156 -4.894531 16.976562 -3.851562 17.65625 -2.78125 C 17.84375 -2.519531 18.046875 -2.242188 18.265625 -1.953125 C 18.484375 -1.671875 18.71875 -1.410156 18.96875 -1.171875 C 19.21875 -0.941406 19.476562 -0.753906 19.75 -0.609375 C 20.03125 -0.460938 20.3125 -0.390625 20.59375 -0.390625 L 20.59375 0 L 18.90625 0 C 17.863281 0 17.007812 -0.253906 16.34375 -0.765625 C 15.675781 -1.273438 15.117188 -1.867188 14.671875 -2.546875 C 13.492188 -4.273438 12.320312 -6.023438 11.15625 -7.796875 C 10 -9.578125 8.84375 -11.332031 7.6875 -13.0625 C 7.40625 -13.09375 7.097656 -13.125 6.765625 -13.15625 C 6.441406 -13.195312 6.132812 -13.242188 5.84375 -13.296875 L 5.84375 -2.546875 C 5.84375 -2.335938 5.867188 -2.109375 5.921875 -1.859375 C 5.972656 -1.609375 6.054688 -1.378906 6.171875 -1.171875 C 6.296875 -0.960938 6.425781 -0.78125 6.5625 -0.625 C 6.707031 -0.46875 6.882812 -0.390625 7.09375 -0.390625 Z M 5.84375 -24.5625 L 5.84375 -14.59375 L 6.046875 -14.59375 C 6.253906 -14.570312 6.585938 -14.550781 7.046875 -14.53125 C 7.503906 -14.519531 8.070312 -14.515625 8.75 -14.515625 C 9.300781 -14.515625 9.882812 -14.597656 10.5 -14.765625 C 11.113281 -14.941406 11.6875 -15.234375 12.21875 -15.640625 C 12.757812 -16.046875 13.203125 -16.570312 13.546875 -17.21875 C 13.898438 -17.875 14.078125 -18.703125 14.078125 -19.703125 C 14.078125 -20.691406 13.890625 -21.5 13.515625 -22.125 C 13.140625 -22.75 12.617188 -23.242188 11.953125 -23.609375 C 11.285156 -23.984375 10.476562 -24.234375 9.53125 -24.359375 C 8.59375 -24.492188 7.5625 -24.5625 6.4375 -24.5625 Z M 5.84375 -24.5625 "/></g></g></g><g fill="#000000" fill-opacity="1"><g transform="translate(256.646846, 286.909111)"><g><path d="M 22.875 -0.390625 L 23.0625 -0.390625 C 23.25 -0.390625 23.421875 -0.46875 23.578125 -0.625 C 23.734375 -0.78125 23.867188 -0.960938 23.984375 -1.171875 C 24.109375 -1.378906 24.195312 -1.609375 24.25 -1.859375 C 24.300781 -2.109375 24.328125 -2.335938 24.328125 -2.546875 L 24.328125 -23.1875 L 14.203125 0.4375 L 4.59375 -21.96875 L 4.59375 -2.546875 C 4.59375 -2.335938 4.617188 -2.109375 4.671875 -1.859375 C 4.722656 -1.609375 4.804688 -1.378906 4.921875 -1.171875 C 5.035156 -0.960938 5.171875 -0.78125 5.328125 -0.625 C 5.492188 -0.46875 5.679688 -0.390625 5.890625 -0.390625 L 6.078125 -0.390625 L 6.078125 0 L 1.8125 0 L 1.8125 -0.390625 L 2 -0.390625 C 2.1875 -0.390625 2.359375 -0.46875 2.515625 -0.625 C 2.671875 -0.78125 2.800781 -0.960938 2.90625 -1.171875 C 3.007812 -1.378906 3.085938 -1.609375 3.140625 -1.859375 C 3.191406 -2.109375 3.21875 -2.335938 3.21875 -2.546875 L 3.21875 -23.46875 C 3.21875 -23.644531 3.191406 -23.847656 3.140625 -24.078125 C 3.085938 -24.316406 3.007812 -24.539062 2.90625 -24.75 C 2.800781 -24.96875 2.671875 -25.144531 2.515625 -25.28125 C 2.359375 -25.425781 2.1875 -25.5 2 -25.5 L 1.8125 -25.5 L 1.8125 -25.890625 L 5.8125 -25.890625 L 14.90625 -4.4375 L 24.015625 -25.890625 L 28.4375 -25.890625 L 28.4375 -25.5 L 28.25 -25.5 C 28.039062 -25.5 27.859375 -25.425781 27.703125 -25.28125 C 27.546875 -25.144531 27.40625 -24.96875 27.28125 -24.75 C 27.164062 -24.539062 27.082031 -24.316406 27.03125 -24.078125 C 26.976562 -23.847656 26.953125 -23.644531 26.953125 -23.46875 L 26.953125 -2.546875 C 26.953125 -2.335938 26.976562 -2.109375 27.03125 -1.859375 C 27.082031 -1.609375 27.164062 -1.378906 27.28125 -1.171875 C 27.40625 -0.960938 27.546875 -0.78125 27.703125 -0.625 C 27.859375 -0.46875 28.039062 -0.390625 28.25 -0.390625 L 28.4375 -0.390625 L 28.4375 0 L 22.875 0 Z M 22.875 -0.390625 "/></g></g></g><g fill="#000000" fill-opacity="1"><g transform="translate(287.127781, 286.909111)"><g><path d="M 16.75 -0.390625 L 16.953125 -0.390625 C 17.578125 -0.390625 17.890625 -0.675781 17.890625 -1.25 C 17.890625 -1.457031 17.847656 -1.679688 17.765625 -1.921875 L 14.234375 -11.453125 L 7.375 -11.453125 L 3.96875 -2.078125 C 3.882812 -1.867188 3.84375 -1.671875 3.84375 -1.484375 C 3.84375 -1.148438 3.929688 -0.882812 4.109375 -0.6875 C 4.296875 -0.488281 4.492188 -0.390625 4.703125 -0.390625 L 4.90625 -0.390625 L 4.90625 0 L 0.546875 0 L 0.546875 -0.390625 L 0.75 -0.390625 C 1.082031 -0.390625 1.410156 -0.59375 1.734375 -1 C 2.066406 -1.40625 2.335938 -1.882812 2.546875 -2.4375 L 11.53125 -26.359375 L 20.328125 -2.671875 C 20.503906 -2.148438 20.753906 -1.640625 21.078125 -1.140625 C 21.410156 -0.640625 21.835938 -0.390625 22.359375 -0.390625 L 22.5625 -0.390625 L 22.5625 0 L 16.75 0 Z M 7.765625 -12.796875 L 13.8125 -12.796875 L 10.796875 -20.984375 Z M 7.765625 -12.796875 "/></g></g></g><g fill="#000000" fill-opacity="1"><g transform="translate(310.272893, 286.909111)"><g><path d="M 17.65625 -6.9375 C 17.65625 -5.632812 17.394531 -4.519531 16.875 -3.59375 C 16.351562 -2.664062 15.675781 -1.910156 14.84375 -1.328125 C 14.019531 -0.753906 13.09375 -0.335938 12.0625 -0.078125 C 11.03125 0.179688 10.003906 0.3125 8.984375 0.3125 C 7.941406 0.3125 7.039062 0.207031 6.28125 0 C 5.519531 -0.207031 4.828125 -0.40625 4.203125 -0.59375 C 3.785156 -0.71875 3.40625 -0.828125 3.0625 -0.921875 C 2.71875 -1.015625 2.378906 -1.0625 2.046875 -1.0625 L 2.046875 -5.53125 L 2.4375 -5.53125 C 2.4375 -4.539062 2.691406 -3.75 3.203125 -3.15625 C 3.710938 -2.570312 4.304688 -2.117188 4.984375 -1.796875 C 5.660156 -1.484375 6.335938 -1.28125 7.015625 -1.1875 C 7.703125 -1.101562 8.203125 -1.0625 8.515625 -1.0625 C 9.640625 -1.0625 10.609375 -1.222656 11.421875 -1.546875 C 12.234375 -1.878906 12.898438 -2.3125 13.421875 -2.84375 C 13.941406 -3.382812 14.328125 -3.976562 14.578125 -4.625 C 14.828125 -5.28125 14.953125 -5.945312 14.953125 -6.625 C 14.953125 -7.488281 14.765625 -8.210938 14.390625 -8.796875 C 14.023438 -9.390625 13.546875 -9.910156 12.953125 -10.359375 C 12.367188 -10.804688 11.695312 -11.1875 10.9375 -11.5 C 10.1875 -11.8125 9.414062 -12.125 8.625 -12.4375 C 7.738281 -12.78125 6.863281 -13.132812 6 -13.5 C 5.132812 -13.863281 4.363281 -14.3125 3.6875 -14.84375 C 3.007812 -15.382812 2.457031 -16.023438 2.03125 -16.765625 C 1.613281 -17.515625 1.40625 -18.4375 1.40625 -19.53125 C 1.40625 -20.6875 1.628906 -21.6875 2.078125 -22.53125 C 2.523438 -23.382812 3.117188 -24.085938 3.859375 -24.640625 C 4.609375 -25.191406 5.457031 -25.601562 6.40625 -25.875 C 7.363281 -26.144531 8.34375 -26.28125 9.34375 -26.28125 C 10.019531 -26.28125 10.65625 -26.234375 11.25 -26.140625 C 11.851562 -26.054688 12.429688 -25.945312 12.984375 -25.8125 C 13.429688 -25.707031 13.863281 -25.625 14.28125 -25.5625 C 14.695312 -25.5 15.101562 -25.46875 15.5 -25.46875 L 15.5 -21.421875 L 15.109375 -21.421875 C 15.054688 -22.785156 14.519531 -23.707031 13.5 -24.1875 C 12.476562 -24.664062 11.066406 -24.90625 9.265625 -24.90625 C 8.210938 -24.90625 7.351562 -24.726562 6.6875 -24.375 C 6.019531 -24.03125 5.488281 -23.601562 5.09375 -23.09375 C 4.707031 -22.582031 4.441406 -22.03125 4.296875 -21.4375 C 4.148438 -20.851562 4.078125 -20.335938 4.078125 -19.890625 C 4.078125 -19.160156 4.238281 -18.53125 4.5625 -18 C 4.894531 -17.476562 5.332031 -17.019531 5.875 -16.625 C 6.425781 -16.238281 7.0625 -15.890625 7.78125 -15.578125 C 8.5 -15.265625 9.253906 -14.960938 10.046875 -14.671875 C 10.929688 -14.328125 11.832031 -13.957031 12.75 -13.5625 C 13.664062 -13.175781 14.484375 -12.695312 15.203125 -12.125 C 15.921875 -11.550781 16.507812 -10.84375 16.96875 -10 C 17.425781 -9.164062 17.65625 -8.144531 17.65625 -6.9375 Z M 17.65625 -6.9375 "/></g></g></g><g fill="#000000" fill-opacity="1"><g transform="translate(329.495102, 286.909111)"><g/></g></g><g fill="#000000" fill-opacity="1"><g transform="translate(339.69464, 286.909111)"><g><path d="M 25.078125 -2.90625 C 25.617188 -2.4375 26.140625 -2.015625 26.640625 -1.640625 C 27.085938 -1.328125 27.546875 -1.039062 28.015625 -0.78125 C 28.484375 -0.519531 28.898438 -0.390625 29.265625 -0.390625 L 29.265625 0 L 27.078125 0 C 26.078125 0 25.195312 -0.1875 24.4375 -0.5625 C 23.6875 -0.945312 22.96875 -1.398438 22.28125 -1.921875 L 18.40625 -4.984375 C 16.988281 -3.078125 15.523438 -1.707031 14.015625 -0.875 C 12.515625 -0.0507812 10.851562 0.359375 9.03125 0.359375 C 7.851562 0.359375 6.796875 0.179688 5.859375 -0.171875 C 4.929688 -0.523438 4.144531 -0.992188 3.5 -1.578125 C 2.863281 -2.171875 2.375 -2.859375 2.03125 -3.640625 C 1.695312 -4.429688 1.53125 -5.242188 1.53125 -6.078125 C 1.53125 -7.878906 1.988281 -9.414062 2.90625 -10.6875 C 3.820312 -11.957031 5.351562 -13.101562 7.5 -14.125 C 6.238281 -15.164062 5.269531 -16.195312 4.59375 -17.21875 C 3.914062 -18.238281 3.578125 -19.300781 3.578125 -20.40625 C 3.578125 -21.164062 3.71875 -21.882812 4 -22.5625 C 4.289062 -23.238281 4.695312 -23.832031 5.21875 -24.34375 C 5.738281 -24.851562 6.34375 -25.257812 7.03125 -25.5625 C 7.726562 -25.863281 8.5 -26.015625 9.34375 -26.015625 C 10.332031 -26.015625 11.207031 -25.84375 11.96875 -25.5 C 12.726562 -25.164062 13.367188 -24.722656 13.890625 -24.171875 C 14.410156 -23.617188 14.800781 -22.984375 15.0625 -22.265625 C 15.320312 -21.546875 15.453125 -20.820312 15.453125 -20.09375 C 15.453125 -19.125 15.148438 -18.113281 14.546875 -17.0625 C 13.953125 -16.019531 12.910156 -15.066406 11.421875 -14.203125 C 12.617188 -13.210938 13.859375 -12.179688 15.140625 -11.109375 C 16.421875 -10.035156 17.691406 -9 18.953125 -8 C 19.472656 -9.050781 19.894531 -10.097656 20.21875 -11.140625 C 20.550781 -12.191406 20.8125 -13.15625 21 -14.03125 C 21.195312 -14.90625 21.328125 -15.664062 21.390625 -16.3125 C 21.460938 -16.96875 21.5 -17.441406 21.5 -17.734375 C 21.5 -18.078125 21.367188 -18.382812 21.109375 -18.65625 C 20.847656 -18.925781 20.5625 -19.0625 20.25 -19.0625 L 20.25 -19.453125 L 24.28125 -19.453125 L 24.28125 -19.0625 C 24.019531 -19.0625 23.75 -18.9375 23.46875 -18.6875 C 23.195312 -18.445312 23.035156 -18.140625 22.984375 -17.765625 C 22.828125 -16.410156 22.609375 -15.09375 22.328125 -13.8125 C 22.085938 -12.707031 21.769531 -11.550781 21.375 -10.34375 C 20.988281 -9.144531 20.507812 -8.101562 19.9375 -7.21875 C 20.457031 -6.71875 21.015625 -6.21875 21.609375 -5.71875 C 22.210938 -5.226562 22.804688 -4.75 23.390625 -4.28125 Z M 6 -20.515625 C 6.1875 -19.597656 6.695312 -18.695312 7.53125 -17.8125 C 8.363281 -16.925781 9.265625 -16.078125 10.234375 -15.265625 C 11.253906 -15.679688 12.039062 -16.3125 12.59375 -17.15625 C 13.144531 -18.007812 13.421875 -18.84375 13.421875 -19.65625 C 13.421875 -20.28125 13.320312 -20.894531 13.125 -21.5 C 12.925781 -22.101562 12.632812 -22.644531 12.25 -23.125 C 11.875 -23.613281 11.390625 -24.003906 10.796875 -24.296875 C 10.210938 -24.597656 9.53125 -24.75 8.75 -24.75 C 7.882812 -24.75 7.195312 -24.410156 6.6875 -23.734375 C 6.175781 -23.054688 5.921875 -22.242188 5.921875 -21.296875 C 5.921875 -21.171875 5.921875 -21.039062 5.921875 -20.90625 C 5.921875 -20.78125 5.945312 -20.648438 6 -20.515625 Z M 10.15625 -1.015625 C 11.4375 -1.015625 12.710938 -1.457031 13.984375 -2.34375 C 15.253906 -3.238281 16.410156 -4.394531 17.453125 -5.8125 C 16.015625 -7.007812 14.550781 -8.226562 13.0625 -9.46875 C 11.570312 -10.71875 10.109375 -11.929688 8.671875 -13.109375 C 7.078125 -12.347656 5.898438 -11.40625 5.140625 -10.28125 C 4.378906 -9.15625 4 -8.015625 4 -6.859375 C 4 -6.160156 4.15625 -5.46875 4.46875 -4.78125 C 4.78125 -4.101562 5.210938 -3.488281 5.765625 -2.9375 C 6.316406 -2.394531 6.96875 -1.945312 7.71875 -1.59375 C 8.476562 -1.238281 9.289062 -1.046875 10.15625 -1.015625 Z M 10.15625 -1.015625 "/></g></g></g><g fill="#000000" fill-opacity="1"><g transform="translate(369.822516, 286.909111)"><g/></g></g><g fill="#000000" fill-opacity="1"><g transform="translate(380.022054, 286.909111)"><g><path d="M 1.765625 -0.390625 L 1.96875 -0.390625 C 2.175781 -0.390625 2.359375 -0.460938 2.515625 -0.609375 C 2.671875 -0.753906 2.804688 -0.929688 2.921875 -1.140625 C 3.035156 -1.347656 3.125 -1.566406 3.1875 -1.796875 C 3.257812 -2.035156 3.296875 -2.257812 3.296875 -2.46875 L 3.296875 -23.46875 C 3.296875 -23.644531 3.257812 -23.847656 3.1875 -24.078125 C 3.125 -24.316406 3.035156 -24.539062 2.921875 -24.75 C 2.804688 -24.96875 2.671875 -25.144531 2.515625 -25.28125 C 2.359375 -25.425781 2.175781 -25.5 1.96875 -25.5 L 1.765625 -25.5 L 1.765625 -25.890625 L 7.421875 -25.890625 L 7.421875 -25.5 L 7.21875 -25.5 C 7.007812 -25.5 6.828125 -25.425781 6.671875 -25.28125 C 6.515625 -25.144531 6.382812 -24.96875 6.28125 -24.75 C 6.175781 -24.539062 6.085938 -24.316406 6.015625 -24.078125 C 5.953125 -23.847656 5.921875 -23.644531 5.921875 -23.46875 L 5.921875 -1.453125 L 14.515625 -1.453125 C 15.015625 -1.453125 15.445312 -1.566406 15.8125 -1.796875 C 16.175781 -2.035156 16.484375 -2.332031 16.734375 -2.6875 C 16.984375 -3.039062 17.164062 -3.421875 17.28125 -3.828125 C 17.394531 -4.234375 17.453125 -4.601562 17.453125 -4.9375 L 17.859375 -4.9375 L 17.859375 0 L 1.765625 0 Z M 1.765625 -0.390625 "/></g></g></g><g fill="#000000" fill-opacity="1"><g transform="translate(398.263554, 286.909111)"><g><path d="M 1.765625 -0.390625 L 1.96875 -0.390625 C 2.175781 -0.390625 2.359375 -0.460938 2.515625 -0.609375 C 2.671875 -0.753906 2.804688 -0.929688 2.921875 -1.140625 C 3.035156 -1.347656 3.125 -1.566406 3.1875 -1.796875 C 3.257812 -2.035156 3.296875 -2.257812 3.296875 -2.46875 L 3.296875 -23.46875 C 3.296875 -23.644531 3.257812 -23.847656 3.1875 -24.078125 C 3.125 -24.316406 3.035156 -24.539062 2.921875 -24.75 C 2.804688 -24.96875 2.671875 -25.144531 2.515625 -25.28125 C 2.359375 -25.425781 2.175781 -25.5 1.96875 -25.5 L 1.765625 -25.5 L 1.765625 -25.890625 L 16.875 -25.890625 L 16.875 -22.25 L 16.484375 -22.25 C 16.429688 -22.84375 16.191406 -23.367188 15.765625 -23.828125 C 15.347656 -24.285156 14.695312 -24.515625 13.8125 -24.515625 L 5.921875 -24.515625 L 5.921875 -14.59375 L 12.4375 -14.59375 C 13.039062 -14.59375 13.546875 -14.773438 13.953125 -15.140625 C 14.359375 -15.503906 14.5625 -15.9375 14.5625 -16.4375 L 14.953125 -16.4375 L 14.953125 -11.53125 L 14.5625 -11.53125 C 14.5625 -12 14.363281 -12.40625 13.96875 -12.75 C 13.570312 -13.09375 13.0625 -13.265625 12.4375 -13.265625 L 5.921875 -13.265625 L 5.921875 -1.375 L 14.515625 -1.375 C 15.015625 -1.375 15.445312 -1.488281 15.8125 -1.71875 C 16.175781 -1.957031 16.484375 -2.238281 16.734375 -2.5625 C 16.984375 -2.894531 17.164062 -3.25 17.28125 -3.625 C 17.394531 -4.007812 17.453125 -4.332031 17.453125 -4.59375 L 17.859375 -4.59375 L 17.859375 0 L 1.765625 0 Z M 1.765625 -0.390625 "/></g></g></g><g fill="#000000" fill-opacity="1"><g transform="translate(417.289628, 286.909111)"><g><path d="M 0.125 -25.890625 L 5.53125 -25.890625 L 5.53125 -25.5 C 5.34375 -25.476562 5.171875 -25.398438 5.015625 -25.265625 C 4.859375 -25.140625 4.78125 -24.941406 4.78125 -24.671875 C 4.78125 -24.546875 4.820312 -24.40625 4.90625 -24.25 L 10.796875 -13.921875 L 16.4375 -23.703125 C 16.539062 -23.910156 16.613281 -24.066406 16.65625 -24.171875 C 16.695312 -24.273438 16.71875 -24.40625 16.71875 -24.5625 C 16.664062 -24.976562 16.515625 -25.238281 16.265625 -25.34375 C 16.015625 -25.445312 15.863281 -25.5 15.8125 -25.5 L 15.8125 -25.890625 L 20.015625 -25.890625 L 20.015625 -25.5 C 19.617188 -25.5 19.21875 -25.253906 18.8125 -24.765625 C 18.40625 -24.285156 18.054688 -23.800781 17.765625 -23.3125 L 11.65625 -12.71875 L 11.65625 -2.546875 C 11.65625 -2.335938 11.6875 -2.113281 11.75 -1.875 C 11.8125 -1.644531 11.894531 -1.414062 12 -1.1875 C 12.101562 -0.96875 12.234375 -0.78125 12.390625 -0.625 C 12.554688 -0.46875 12.742188 -0.390625 12.953125 -0.390625 L 13.140625 -0.390625 L 13.140625 0 L 7.53125 0 L 7.53125 -0.390625 L 7.734375 -0.390625 C 7.941406 -0.390625 8.125 -0.460938 8.28125 -0.609375 C 8.4375 -0.753906 8.570312 -0.9375 8.6875 -1.15625 C 8.800781 -1.375 8.882812 -1.609375 8.9375 -1.859375 C 9 -2.109375 9.03125 -2.335938 9.03125 -2.546875 L 9.03125 -12.359375 L 2.703125 -23.1875 C 2.578125 -23.394531 2.421875 -23.628906 2.234375 -23.890625 C 2.054688 -24.148438 1.859375 -24.398438 1.640625 -24.640625 C 1.429688 -24.878906 1.207031 -25.082031 0.96875 -25.25 C 0.738281 -25.414062 0.519531 -25.5 0.3125 -25.5 L 0.125 -25.5 Z M 0.125 -25.890625 "/></g></g></g><g fill="#000000" fill-opacity="1"><g transform="translate(438.041763, 286.909111)"><g><path d="M 4.984375 -24.515625 C 4.984375 -24.359375 5.019531 -24.164062 5.09375 -23.9375 L 12 -5.328125 L 18.90625 -24.125 C 18.9375 -24.175781 18.960938 -24.253906 18.984375 -24.359375 C 19.015625 -24.460938 19.03125 -24.539062 19.03125 -24.59375 C 19.03125 -24.914062 18.90625 -25.144531 18.65625 -25.28125 C 18.40625 -25.425781 18.175781 -25.5 17.96875 -25.5 L 17.96875 -25.890625 L 22.25 -25.890625 L 22.25 -25.5 C 21.851562 -25.5 21.488281 -25.394531 21.15625 -25.1875 C 20.832031 -24.976562 20.582031 -24.625 20.40625 -24.125 L 11.421875 0.46875 L 2.234375 -24.015625 C 2.078125 -24.398438 1.847656 -24.738281 1.546875 -25.03125 C 1.242188 -25.320312 0.875 -25.476562 0.4375 -25.5 L 0.4375 -25.890625 L 6 -25.890625 L 6 -25.5 C 5.769531 -25.5 5.539062 -25.414062 5.3125 -25.25 C 5.09375 -25.082031 4.984375 -24.835938 4.984375 -24.515625 Z M 4.984375 -24.515625 "/></g></g></g><g fill="#000000" fill-opacity="1"><g transform="translate(461.147652, 286.909111)"><g><path d="M 16.75 -0.390625 L 16.953125 -0.390625 C 17.578125 -0.390625 17.890625 -0.675781 17.890625 -1.25 C 17.890625 -1.457031 17.847656 -1.679688 17.765625 -1.921875 L 14.234375 -11.453125 L 7.375 -11.453125 L 3.96875 -2.078125 C 3.882812 -1.867188 3.84375 -1.671875 3.84375 -1.484375 C 3.84375 -1.148438 3.929688 -0.882812 4.109375 -0.6875 C 4.296875 -0.488281 4.492188 -0.390625 4.703125 -0.390625 L 4.90625 -0.390625 L 4.90625 0 L 0.546875 0 L 0.546875 -0.390625 L 0.75 -0.390625 C 1.082031 -0.390625 1.410156 -0.59375 1.734375 -1 C 2.066406 -1.40625 2.335938 -1.882812 2.546875 -2.4375 L 11.53125 -26.359375 L 20.328125 -2.671875 C 20.503906 -2.148438 20.753906 -1.640625 21.078125 -1.140625 C 21.410156 -0.640625 21.835938 -0.390625 22.359375 -0.390625 L 22.5625 -0.390625 L 22.5625 0 L 16.75 0 Z M 7.765625 -12.796875 L 13.8125 -12.796875 L 10.796875 -20.984375 Z M 7.765625 -12.796875 "/></g></g></g><path stroke-linecap="butt" transform="matrix(3.745421, 0.000000000000000546, -0.000000000000000546, 3.742871, 203.493122, 247.644452)" fill="none" stroke-linejoin="miter" d="M -0.000249609 0.0000212664 L 77.948046 0.0000212664 " stroke="#a98351" stroke-width="1" stroke-opacity="1" stroke-miterlimit="4"/><g clip-path="url(#id1)"><g clip-path="url(#id2)"><path fill="#ffffff" d="M 178.671875 291.085938 L 186.558594 293.449219 L 178.828125 319.238281 L 170.941406 316.875 L 178.671875 291.085938 " fill-opacity="1" fill-rule="nonzero"/></g></g><g fill="#000000" fill-opacity="1"><g transform="translate(28.845249, 319.787544)"><g><path d="M 100.015625 -2.34375 L 101.1875 -2.34375 C 104.9375 -2.34375 106.8125 -4.0625 106.8125 -7.5 C 106.8125 -8.75 106.578125 -10.078125 106.109375 -11.484375 L 85.03125 -68.390625 L 44.03125 -68.390625 L 23.65625 -12.421875 C 23.1875 -11.171875 22.953125 -10 22.953125 -8.90625 C 22.953125 -6.875 23.5 -5.269531 24.59375 -4.09375 C 25.6875 -2.925781 26.859375 -2.34375 28.109375 -2.34375 L 29.28125 -2.34375 L 29.28125 0 L 3.28125 0 L 3.28125 -2.34375 L 4.453125 -2.34375 C 6.484375 -2.34375 8.472656 -3.550781 10.421875 -5.96875 C 12.367188 -8.394531 13.96875 -11.242188 15.21875 -14.515625 L 68.859375 -157.40625 L 121.328125 -15.921875 C 122.421875 -12.804688 123.941406 -9.765625 125.890625 -6.796875 C 127.847656 -3.828125 130.390625 -2.34375 133.515625 -2.34375 L 134.6875 -2.34375 L 134.6875 0 L 100.015625 0 Z M 46.375 -76.359375 L 82.453125 -76.359375 L 64.421875 -125.3125 Z M 46.375 -76.359375 "/></g></g></g><g clip-path="url(#id3)"><path fill="#ffffff" d="M 45.566406 221.089844 L 85.988281 221.089844 L 85.988281 281.714844 L 45.566406 281.714844 L 45.566406 221.089844 " fill-opacity="1" fill-rule="nonzero"/></g><g fill="#000000" fill-opacity="1"><g transform="translate(44.771363, 275.858798)"><g><path d="M 5.625 -1.25 L 6.25 -1.25 C 6.914062 -1.25 7.5 -1.476562 8 -1.9375 C 8.5 -2.394531 8.9375 -2.957031 9.3125 -3.625 C 9.6875 -4.289062 9.976562 -5 10.1875 -5.75 C 10.394531 -6.5 10.5 -7.207031 10.5 -7.875 L 10.5 -74.703125 C 10.5 -75.285156 10.394531 -75.953125 10.1875 -76.703125 C 9.976562 -77.453125 9.6875 -78.160156 9.3125 -78.828125 C 8.9375 -79.492188 8.5 -80.054688 8 -80.515625 C 7.5 -80.972656 6.914062 -81.203125 6.25 -81.203125 L 5.625 -81.203125 L 5.625 -82.453125 L 23.609375 -82.453125 L 23.609375 -81.203125 L 22.984375 -81.203125 C 22.316406 -81.203125 21.734375 -80.972656 21.234375 -80.515625 C 20.734375 -80.054688 20.316406 -79.492188 19.984375 -78.828125 C 19.648438 -78.160156 19.378906 -77.453125 19.171875 -76.703125 C 18.960938 -75.953125 18.859375 -75.285156 18.859375 -74.703125 L 18.859375 -4.625 L 46.21875 -4.625 C 47.800781 -4.625 49.175781 -5 50.34375 -5.75 C 51.507812 -6.5 52.488281 -7.4375 53.28125 -8.5625 C 54.070312 -9.6875 54.65625 -10.890625 55.03125 -12.171875 C 55.40625 -13.460938 55.59375 -14.648438 55.59375 -15.734375 L 56.84375 -15.734375 L 56.84375 0 L 5.625 0 Z M 5.625 -1.25 "/></g></g></g><g fill="#000000" fill-opacity="1"><g transform="translate(86.479915, 321.330128)"><g><path d="M 18.953125 -2.203125 C 19.367188 -1.835938 19.765625 -1.519531 20.140625 -1.25 C 20.484375 -1.007812 20.832031 -0.789062 21.1875 -0.59375 C 21.539062 -0.394531 21.859375 -0.296875 22.140625 -0.296875 L 22.140625 0 L 20.46875 0 C 19.71875 0 19.054688 -0.140625 18.484375 -0.421875 C 17.910156 -0.710938 17.367188 -1.054688 16.859375 -1.453125 L 13.921875 -3.765625 C 12.847656 -2.328125 11.742188 -1.296875 10.609375 -0.671875 C 9.472656 -0.046875 8.210938 0.265625 6.828125 0.265625 C 5.929688 0.265625 5.128906 0.132812 4.421875 -0.125 C 3.722656 -0.394531 3.128906 -0.753906 2.640625 -1.203125 C 2.160156 -1.648438 1.789062 -2.171875 1.53125 -2.765625 C 1.28125 -3.359375 1.15625 -3.96875 1.15625 -4.59375 C 1.15625 -5.957031 1.5 -7.117188 2.1875 -8.078125 C 2.882812 -9.046875 4.046875 -9.914062 5.671875 -10.6875 C 4.722656 -11.476562 3.988281 -12.257812 3.46875 -13.03125 C 2.957031 -13.800781 2.703125 -14.597656 2.703125 -15.421875 C 2.703125 -16.003906 2.8125 -16.550781 3.03125 -17.0625 C 3.25 -17.570312 3.554688 -18.019531 3.953125 -18.40625 C 4.347656 -18.789062 4.804688 -19.097656 5.328125 -19.328125 C 5.847656 -19.554688 6.425781 -19.671875 7.0625 -19.671875 C 7.8125 -19.671875 8.472656 -19.539062 9.046875 -19.28125 C 9.617188 -19.03125 10.101562 -18.695312 10.5 -18.28125 C 10.894531 -17.863281 11.191406 -17.378906 11.390625 -16.828125 C 11.585938 -16.285156 11.6875 -15.738281 11.6875 -15.1875 C 11.6875 -14.457031 11.457031 -13.695312 11 -12.90625 C 10.550781 -12.113281 9.765625 -11.390625 8.640625 -10.734375 C 9.546875 -9.984375 10.484375 -9.203125 11.453125 -8.390625 C 12.421875 -7.585938 13.378906 -6.804688 14.328125 -6.046875 C 14.722656 -6.835938 15.046875 -7.628906 15.296875 -8.421875 C 15.546875 -9.210938 15.742188 -9.941406 15.890625 -10.609375 C 16.035156 -11.273438 16.132812 -11.851562 16.1875 -12.34375 C 16.238281 -12.832031 16.265625 -13.1875 16.265625 -13.40625 C 16.265625 -13.664062 16.164062 -13.898438 15.96875 -14.109375 C 15.769531 -14.316406 15.550781 -14.421875 15.3125 -14.421875 L 15.3125 -14.71875 L 18.359375 -14.71875 L 18.359375 -14.421875 C 18.160156 -14.421875 17.957031 -14.328125 17.75 -14.140625 C 17.550781 -13.953125 17.429688 -13.71875 17.390625 -13.4375 C 17.265625 -12.40625 17.097656 -11.40625 16.890625 -10.4375 C 16.703125 -9.613281 16.457031 -8.742188 16.15625 -7.828125 C 15.863281 -6.921875 15.503906 -6.128906 15.078125 -5.453125 C 15.472656 -5.078125 15.894531 -4.703125 16.34375 -4.328125 C 16.800781 -3.953125 17.25 -3.585938 17.6875 -3.234375 Z M 4.546875 -15.515625 C 4.679688 -14.828125 5.0625 -14.144531 5.6875 -13.46875 C 6.320312 -12.800781 7.007812 -12.160156 7.75 -11.546875 C 8.519531 -11.859375 9.109375 -12.335938 9.515625 -12.984375 C 9.929688 -13.628906 10.140625 -14.253906 10.140625 -14.859375 C 10.140625 -15.335938 10.066406 -15.800781 9.921875 -16.25 C 9.773438 -16.707031 9.554688 -17.117188 9.265625 -17.484375 C 8.984375 -17.859375 8.617188 -18.15625 8.171875 -18.375 C 7.722656 -18.601562 7.203125 -18.71875 6.609375 -18.71875 C 5.960938 -18.71875 5.445312 -18.460938 5.0625 -17.953125 C 4.675781 -17.441406 4.484375 -16.828125 4.484375 -16.109375 C 4.484375 -16.015625 4.484375 -15.914062 4.484375 -15.8125 C 4.484375 -15.71875 4.503906 -15.617188 4.546875 -15.515625 Z M 7.6875 -0.765625 C 8.65625 -0.765625 9.617188 -1.101562 10.578125 -1.78125 C 11.535156 -2.457031 12.410156 -3.328125 13.203125 -4.390625 C 12.117188 -5.296875 11.007812 -6.21875 9.875 -7.15625 C 8.75 -8.101562 7.644531 -9.019531 6.5625 -9.90625 C 5.351562 -9.332031 4.460938 -8.617188 3.890625 -7.765625 C 3.316406 -6.921875 3.03125 -6.0625 3.03125 -5.1875 C 3.03125 -4.65625 3.144531 -4.128906 3.375 -3.609375 C 3.613281 -3.097656 3.941406 -2.632812 4.359375 -2.21875 C 4.773438 -1.8125 5.269531 -1.472656 5.84375 -1.203125 C 6.414062 -0.929688 7.03125 -0.785156 7.6875 -0.765625 Z M 7.6875 -0.765625 "/></g></g></g></svg>